<?xml version="1.0" encoding="UTF-8"?>
<svg id="Layer_1" data-name="Layer 1" xmlns="http://www.w3.org/2000/svg" viewBox="0 0 106.43 35">
  <defs>
    <style>
      .cls-1 {
        fill: #f27226;
      }

      .cls-1, .cls-2, .cls-3, .cls-4 {
        stroke-width: 0px;
      }

      .cls-2 {
        fill: #fff;
      }

      .cls-3 {
        fill: #0e69af;
      }

      .cls-4 {
        fill: #0db04b;
      }
    </style>
  </defs>
  <g>
    <path class="cls-4" d="M46.68,5.38c-3.09,0-5.74,2.03-6.8,4.88-.06.15-.24.75-.24.75l-4.3,18.61h9.87c3.39,0,6.26-2.45,7.07-5.74,0,0,0,0,0,0h0l4.27-18.49h-9.86Z"/>
    <path class="cls-1" d="M30.25,0c-3.3,0-6.09,2.24-6.96,5.29-.06.23-.12.46-.16.7l-6.7,29.01h9.86c3.38,0,6.22-2.34,7.01-5.5h0s0,0,0,0L40.12,0h-9.87Z"/>
    <path class="cls-3" d="M11.34,5.38c-3.2,0-5.93,2.18-6.92,5.19-.02.07-.04.14-.06.2l-.16.65L0,29.62h10.11c3.02,0,5.61-2,6.62-4.81l.4-1.73,4.08-17.69h-9.87Z"/>
    <path class="cls-2" d="M9.5,11.43v.02h-.16c-.7,0-1.37.25-1.98.75-.59.48-.97,1.06-1.1,1.54h0l-2.26,9.83h.13c.71,0,1.38-.25,2-.76.61-.5,1.01-1.11,1.16-1.82l.49-2.13h4.5c.7,0,1.38-.26,2-.76.61-.5,1-1.1,1.16-1.81l.03-.13h-7.06s.47-2.03.47-2.03h6.12c.7,0,1.37-.26,1.98-.75.61-.49.98-1.11,1.15-1.81l.03-.13h-8.65Z"/>
    <path class="cls-2" d="M34.47,12.02c-.39-.39-.9-.59-1.51-.59h-8.63s-2.79,12.11-2.79,12.11h0v.02s.13,0,.13,0c.71,0,1.38-.25,2-.75.61-.5,1.01-1.11,1.16-1.82l.5-2.16h5.98c.7,0,1.33-.08,1.94-.57.61-.49,1.04-1.27,1.21-1.98l.52-2.24c.04-.18.06-.36.06-.55.01-.58-.18-1.07-.57-1.46ZM31.77,16.15h-5.82s.47-2.04.47-2.04h5.82s-.47,2.04-.47,2.04Z"/>
    <path class="cls-2" d="M52.03,12.03c-.38-.39-.89-.59-1.5-.59h-9.11l-.02.09c-.04.19-.06.37-.07.53,0,.59.18,1.09.56,1.48.38.39.89.59,1.5.59h1.91l-2.17,9.43h.13c.71,0,1.38-.25,2-.76.61-.5,1.01-1.11,1.16-1.82l1.59-6.86h4.49l.02-.09c.04-.18.06-.37.06-.55.01-.58-.18-1.07-.56-1.46Z"/>
  </g>
  <path class="cls-3" d="M53.8,27.53c0-1.15.94-2.08,2.09-2.08s2.09.94,2.09,2.08-.94,2.09-2.09,2.09-2.09-.94-2.09-2.09M57.46,27.53c0-.98-.71-1.68-1.58-1.68s-1.58.71-1.58,1.68.71,1.68,1.58,1.68,1.58-.71,1.58-1.68M55.08,26.33h.88c.57,0,.87.2.87.69,0,.41-.23.6-.62.64l.64,1.03h-.45l-.61-1.02h-.27v1.02h-.44v-2.36ZM55.52,27.35h.39c.26,0,.48-.04.48-.35,0-.28-.25-.32-.48-.32h-.39v.68Z"/>
  <g>
    <path class="cls-3" d="M65.69,15.4v8.11h-1.46v-8.11h-2.15v-1.23h5.75v1.23h-2.14Z"/>
    <path class="cls-3" d="M74.34,20l-4.62.64c.15,1.26.86,1.88,2.13,1.88.76,0,1.4-.14,1.92-.43l.41,1.06c-.63.33-1.44.49-2.42.49-1.08,0-1.93-.33-2.53-.98-.59-.64-.89-1.52-.89-2.64s.28-1.94.84-2.61c.57-.67,1.33-1.01,2.3-1.01.89,0,1.6.28,2.12.83.51.55.76,1.29.76,2.23,0,.23,0,.41-.01.53ZM73,19.26c0-1.2-.52-1.81-1.55-1.81-.55,0-.98.2-1.3.59-.34.4-.51.96-.52,1.68l3.37-.46Z"/>
    <path class="cls-3" d="M75.36,23.51v-10.12h1.42v10.12h-1.42Z"/>
    <path class="cls-3" d="M83.78,20l-4.62.64c.15,1.26.86,1.88,2.13,1.88.76,0,1.4-.14,1.92-.43l.41,1.06c-.63.33-1.44.49-2.42.49-1.08,0-1.93-.33-2.53-.98-.59-.64-.89-1.52-.89-2.64s.28-1.94.84-2.61c.57-.67,1.33-1.01,2.3-1.01.89,0,1.6.28,2.12.83.51.55.76,1.29.76,2.23,0,.23,0,.41-.01.53ZM82.44,19.26c0-1.2-.52-1.81-1.55-1.81-.55,0-.98.2-1.3.59-.34.4-.51.96-.52,1.68l3.37-.46Z"/>
    <path class="cls-3" d="M89.34,23.18c-.47.32-1.07.48-1.78.48-.85,0-1.55-.29-2.1-.86-.64-.66-.95-1.58-.95-2.76s.32-2.09.95-2.75c.55-.58,1.25-.86,2.1-.86.71,0,1.31.16,1.78.48l-.46,1.02c-.31-.22-.69-.34-1.13-.34-.51,0-.92.19-1.24.58-.36.44-.54,1.06-.54,1.86s.18,1.42.55,1.86c.33.4.74.59,1.23.59.45,0,.83-.11,1.13-.34l.46,1.04Z"/>
    <path class="cls-3" d="M95.24,22.61c-.55.7-1.31,1.04-2.27,1.04s-1.72-.35-2.27-1.04c-.52-.65-.79-1.51-.79-2.58s.26-1.93.79-2.58c.55-.69,1.31-1.03,2.27-1.03s1.72.34,2.27,1.03c.52.65.79,1.51.79,2.58s-.26,1.93-.79,2.58ZM94.19,18.21c-.28-.45-.69-.67-1.23-.67s-.94.22-1.23.67c-.28.44-.41,1.04-.41,1.81s.14,1.37.41,1.81c.28.46.69.68,1.23.68s.94-.23,1.23-.68c.28-.44.41-1.04.41-1.81s-.14-1.37-.41-1.81Z"/>
    <path class="cls-3" d="M105.03,23.51v-4.71c0-.4-.12-.7-.36-.93-.24-.21-.56-.32-.97-.32-.56,0-.98.15-1.28.46v5.49h-1.42v-4.84c0-.34-.13-.62-.39-.83-.26-.2-.6-.3-1.03-.3-.47,0-.87.07-1.19.21v5.75h-1.41v-6.6c.79-.33,1.63-.49,2.5-.49,1,0,1.74.25,2.22.75.58-.5,1.35-.75,2.31-.75.74,0,1.33.2,1.77.61.43.4.64.95.64,1.64v4.85h-1.41Z"/>
  </g>
</svg>