<svg width="200" height="200" viewBox="0 0 200 200" fill="none" xmlns="http://www.w3.org/2000/svg">
<g clip-path="url(#clip0_806_19)">
<path d="M152.504 41.0129C143.344 41.0129 135.475 47.0377 132.316 55.5173C132.157 55.9577 131.596 57.7473 131.596 57.7473L118.848 113.085H148.13C158.186 113.085 166.701 105.814 169.112 96.0039L181.776 41.0129H152.504ZM169.794 67.0233H156.457L151.737 87.4212C151.27 89.52 150.111 91.3378 148.289 92.8275C146.475 94.3173 144.475 95.0669 142.363 95.0669H141.98L148.419 67.0233H142.765C140.942 67.0233 139.438 66.433 138.307 65.2805C137.166 64.1093 136.606 62.6289 136.634 60.8768C136.643 60.3708 136.708 59.8555 136.83 59.2839L136.886 59.0309H163.906C165.729 59.0309 167.233 59.6212 168.374 60.7831C169.505 61.9355 170.065 63.3972 170.037 65.1306C170.019 65.6834 169.963 66.2363 169.85 66.7703L169.794 67.0233Z" fill="white"/>
<path d="M92.3867 66.9763L109.668 66.9951L108.266 73.0292L90.9941 73.0198L92.3867 66.9763Z" fill="white"/>
<path d="M103.753 25C93.9484 25 85.6769 31.6525 83.1067 40.7318C82.9197 41.4158 82.7609 42.1091 82.63 42.8119L62.7598 129.107H92.0137C102.042 129.107 110.473 122.145 112.828 112.738L133.044 25H103.753ZM116.202 73.4228C115.697 75.5497 114.417 77.8546 112.622 79.3163C110.818 80.7686 108.959 81.0122 106.874 81.0122L89.1444 80.9935L87.6583 87.4211C87.191 89.52 86.0227 91.3377 84.2002 92.8275C82.387 94.3173 80.3962 95.0668 78.284 95.0668H77.9008V95.02L86.1723 58.984L111.781 59.0121C113.604 59.0121 115.108 59.6024 116.258 60.7643C117.417 61.9167 117.978 63.3784 117.95 65.1024C117.94 65.6646 117.875 66.2174 117.763 66.7421L116.202 73.4228Z" fill="white"/>
<path d="M47.6467 41.0129C38.1602 41.0129 30.0476 47.4874 27.1316 56.4543C27.0661 56.651 27.0007 56.8572 26.9446 57.0539L26.4586 58.9841L14 113.085H43.9829C52.946 113.085 60.638 107.126 63.6195 98.7773L64.8065 93.6333L76.9193 41.0129H47.6467ZM64.3298 64.7839C62.5353 66.2456 60.5633 66.9858 58.4697 66.9858L40.3192 67.0139L38.9266 73.0387L59.881 73.0574L59.7969 73.4416C59.3296 75.5404 58.1706 77.3487 56.3481 78.8198C54.5256 80.2908 52.5161 81.0779 50.4225 81.0779H37.0667L35.5993 87.4212C35.132 89.52 33.9637 91.3378 32.1412 92.8275C30.3373 94.3173 28.3372 95.0669 26.225 95.0669H25.8418L32.5618 65.824H32.5711C32.973 64.3998 34.1132 62.6758 35.8517 61.2516C37.6555 59.7805 39.6182 59.0309 41.7118 59.0309H42.1604L42.1791 58.9841L67.844 59.0122L67.7506 59.3963C67.2552 61.4764 66.1243 63.3129 64.3298 64.7839Z" fill="white"/>
<path d="M180.784 107.285C181.943 107.182 182.634 106.601 182.634 105.392C182.634 103.912 181.709 103.331 180.036 103.331H177.429V110.358H178.737V107.332H179.522L181.335 110.358H182.672L180.784 107.285ZM178.737 106.339V104.324H179.896C180.569 104.324 181.326 104.455 181.326 105.289C181.326 106.226 180.653 106.339 179.887 106.339H178.737ZM180.784 107.285C181.943 107.182 182.634 106.601 182.634 105.392C182.634 103.912 181.709 103.331 180.036 103.331H177.429V110.358H178.737V107.332H179.522L181.335 110.358H182.672L180.784 107.285ZM178.737 106.339V104.324H179.896C180.569 104.324 181.326 104.455 181.326 105.289C181.326 106.226 180.653 106.339 179.887 106.339H178.737ZM180.784 107.285C181.943 107.182 182.634 106.601 182.634 105.392C182.634 103.912 181.709 103.331 180.036 103.331H177.429V110.358H178.737V107.332H179.522L181.335 110.358H182.672L180.784 107.285ZM178.737 106.339V104.324H179.896C180.569 104.324 181.326 104.455 181.326 105.289C181.326 106.226 180.653 106.339 179.887 106.339H178.737ZM180.784 107.285C181.943 107.182 182.634 106.601 182.634 105.392C182.634 103.912 181.709 103.331 180.036 103.331H177.429V110.358H178.737V107.332H179.522L181.335 110.358H182.672L180.784 107.285ZM178.737 106.339V104.324H179.896C180.569 104.324 181.326 104.455 181.326 105.289C181.326 106.226 180.653 106.339 179.887 106.339H178.737ZM179.812 100.67C176.4 100.67 173.615 103.453 173.615 106.873C173.615 110.293 176.4 113.085 179.812 113.085C183.223 113.085 185.999 110.293 185.999 106.873C185.999 103.453 183.233 100.67 179.812 100.67ZM179.812 111.876C177.223 111.876 175.129 109.777 175.129 106.873C175.129 103.968 177.223 101.869 179.812 101.869C182.401 101.869 184.504 103.968 184.504 106.873C184.504 109.777 182.401 111.876 179.812 111.876ZM182.634 105.392C182.634 103.912 181.709 103.331 180.036 103.331H177.429V110.358H178.737V107.332H179.522L181.335 110.358H182.672L180.784 107.285C181.943 107.182 182.634 106.601 182.634 105.392ZM178.737 106.339V104.324H179.896C180.569 104.324 181.326 104.455 181.326 105.289C181.326 106.226 180.653 106.339 179.887 106.339H178.737ZM180.784 107.285C181.943 107.182 182.634 106.601 182.634 105.392C182.634 103.912 181.709 103.331 180.036 103.331H177.429V110.358H178.737V107.332H179.522L181.335 110.358H182.672L180.784 107.285ZM178.737 106.339V104.324H179.896C180.569 104.324 181.326 104.455 181.326 105.289C181.326 106.226 180.653 106.339 179.887 106.339H178.737ZM180.784 107.285C181.943 107.182 182.634 106.601 182.634 105.392C182.634 103.912 181.709 103.331 180.036 103.331H177.429V110.358H178.737V107.332H179.522L181.335 110.358H182.672L180.784 107.285ZM178.737 106.339V104.324H179.896C180.569 104.324 181.326 104.455 181.326 105.289C181.326 106.226 180.653 106.339 179.887 106.339H178.737Z" fill="white"/>
<path d="M42.5442 150.517V174.578H38.2355V150.517H31.8613V146.881H48.8809V150.517H42.5442Z" fill="white"/>
<path d="M68.1529 164.169L54.4886 166.08C54.9186 169.8 57.0215 171.664 60.788 171.664C63.0312 171.664 64.9191 171.243 66.4706 170.399L67.695 173.538C65.835 174.503 63.4424 174.991 60.517 174.991C57.3112 174.991 54.8158 174.026 53.04 172.086C51.2828 170.203 50.4043 167.589 50.4043 164.244C50.4043 160.899 51.2268 158.481 52.8811 156.514C54.5634 154.527 56.8252 153.534 59.6758 153.534C62.3208 153.534 64.4051 154.349 65.9379 155.979C67.4333 157.61 68.1903 159.821 68.1903 162.594C68.1903 163.278 68.181 163.803 68.1529 164.159V164.169ZM64.1807 161.948C64.1527 158.378 62.6293 156.588 59.6011 156.588C57.9748 156.588 56.685 157.179 55.7504 158.35C54.7597 159.549 54.2456 161.208 54.2269 163.325L64.1901 161.948H64.1807Z" fill="white"/>
<path d="M71.1621 174.578V144.548H75.3586V174.578H71.1621Z" fill="white"/>
<path d="M96.0807 164.169L82.4164 166.08C82.8463 169.8 84.9492 171.664 88.7158 171.664C90.9589 171.664 92.8468 171.243 94.3983 170.399L95.6227 173.538C93.7628 174.503 91.3701 174.991 88.4447 174.991C85.2389 174.991 82.7435 174.026 80.9677 172.086C79.2106 170.203 78.332 167.589 78.332 164.244C78.332 160.899 79.1545 158.481 80.8088 156.514C82.4911 154.527 84.7529 153.534 87.6036 153.534C90.2486 153.534 92.3328 154.349 93.8656 155.979C95.361 157.61 96.118 159.821 96.118 162.594C96.118 163.278 96.1087 163.803 96.0807 164.159V164.169ZM92.1178 161.948C92.0898 158.378 90.5663 156.588 87.5381 156.588C85.9119 156.588 84.6221 157.179 83.6875 158.35C82.6968 159.549 82.1827 161.208 82.164 163.325L92.1272 161.948H92.1178Z" fill="white"/>
<path d="M112.528 173.585C111.126 174.531 109.369 175 107.266 175C104.752 175 102.677 174.147 101.051 172.433C99.1725 170.465 98.2285 167.738 98.2285 164.243C98.2285 160.748 99.1725 158.031 101.051 156.092C102.677 154.386 104.752 153.524 107.266 153.524C109.379 153.524 111.136 153.993 112.528 154.939L111.154 157.966C110.239 157.3 109.117 156.972 107.799 156.972C106.294 156.972 105.079 157.544 104.135 158.697C103.07 159.999 102.537 161.835 102.537 164.206C102.537 166.576 103.079 168.413 104.173 169.715C105.135 170.887 106.35 171.477 107.799 171.477C109.117 171.477 110.239 171.149 111.154 170.484L112.528 173.585Z" fill="white"/>
<path d="M129.961 171.898C128.334 173.96 126.091 175 123.241 175C120.39 175 118.156 173.969 116.521 171.898C114.969 169.959 114.193 167.41 114.193 164.243C114.193 161.076 114.969 158.528 116.521 156.588C118.147 154.546 120.39 153.524 123.241 153.524C126.091 153.524 128.325 154.546 129.961 156.588C131.512 158.528 132.288 161.076 132.288 164.243C132.288 167.41 131.512 169.959 129.961 171.898ZM126.876 158.856C126.035 157.535 124.829 156.869 123.25 156.869C121.67 156.869 120.465 157.535 119.624 158.856C118.81 160.158 118.399 161.938 118.399 164.215C118.399 166.492 118.801 168.272 119.624 169.575C120.465 170.924 121.67 171.599 123.25 171.599C124.829 171.599 126.035 170.924 126.876 169.575C127.689 168.272 128.101 166.492 128.101 164.215C128.101 161.938 127.689 160.158 126.876 158.856Z" fill="white"/>
<path d="M158.924 174.578V160.617C158.924 159.446 158.569 158.528 157.858 157.863C157.148 157.226 156.195 156.907 154.998 156.907C153.344 156.907 152.082 157.366 151.223 158.284V174.578H147.026V160.233C147.026 159.212 146.643 158.397 145.886 157.788C145.119 157.197 144.101 156.907 142.83 156.907C141.428 156.907 140.259 157.113 139.315 157.516V174.578H135.156V154.996C137.493 154.03 139.96 153.543 142.559 153.543C145.512 153.543 147.699 154.283 149.12 155.764C150.849 154.283 153.129 153.543 155.952 153.543C158.139 153.543 159.887 154.143 161.176 155.342C162.447 156.542 163.083 158.162 163.083 160.205V174.588H158.924V174.578Z" fill="white"/>
</g>
<defs>
<clipPath id="clip0_806_19">
<rect width="172" height="150" fill="white" transform="translate(14 25)"/>
</clipPath>
</defs>
</svg>
