<svg width="198" height="66" viewBox="0 0 198 66" fill="none" xmlns="http://www.w3.org/2000/svg">
<path fill-rule="evenodd" clip-rule="evenodd" d="M8.23207 19.8075C10.0608 14.1584 15.147 10.0844 21.0976 10.0844H21.1035H39.4551L31.8581 43.2212L31.1113 46.4662C29.2356 51.7246 24.414 55.4788 18.7985 55.4788H0L7.8087 21.4004L8.11447 20.1865C8.14975 20.0621 8.19091 19.9319 8.23207 19.8075ZM17.6692 21.436V21.4064H17.681L33.7746 21.4241L33.7158 21.6669C33.3983 22.9756 32.6927 24.1362 31.5696 25.06C30.4407 25.9778 29.2058 26.4456 27.8946 26.4456L16.5167 26.4634L15.6406 30.2591L28.7766 30.2709L28.7237 30.5137C28.4297 31.8342 27.7006 32.9711 26.5598 33.9008C25.4132 34.8246 24.149 35.316 22.8436 35.316H14.4704L13.5473 39.3131C13.2474 40.6336 12.5183 41.7824 11.3775 42.718C10.2427 43.6595 8.99024 44.1332 7.66723 44.1332H7.42615L11.6363 25.7113H11.648C11.895 24.8172 12.6124 23.7276 13.7002 22.8335C14.8291 21.9038 16.0639 21.436 17.3752 21.436H17.6692Z" fill="white"/>
<path fill-rule="evenodd" clip-rule="evenodd" d="M43.33 9.91264C44.9412 4.19244 50.1274 0 56.272 0H74.6354L61.958 55.2656C60.4821 61.1813 55.196 65.5691 48.9102 65.5691H30.5703L43.0301 11.2213C43.1125 10.7772 43.2065 10.339 43.33 9.91264ZM61.3125 21.4241C62.4533 21.4241 63.3941 21.7971 64.1173 22.5255C64.8406 23.2538 65.1934 24.1776 65.1757 25.2612C65.1698 25.6165 65.1287 25.9659 65.0581 26.2975L64.082 30.5018C63.7645 31.84 62.9589 33.2967 61.8359 34.2146C60.701 35.1324 59.5368 35.2864 58.2314 35.2864L47.1122 35.2745L46.1832 39.3189C45.8892 40.6394 45.16 41.7882 44.0193 42.7238C42.8845 43.6594 41.632 44.1331 40.309 44.1331H40.0738V44.1035H40.0679L45.2541 21.4063L61.3125 21.4241ZM48.2765 30.2412L59.1075 30.2531V30.2472L59.9836 26.4455L49.1526 26.4337L48.2765 30.2412Z" fill="white"/>
<path fill-rule="evenodd" clip-rule="evenodd" d="M74.184 19.2213C76.1656 13.8801 81.1048 10.0844 86.8437 10.0844V10.0725H105.195L97.2573 44.7135C95.7402 50.8896 90.407 55.4729 84.0977 55.4729H65.7402L73.7312 20.6188C73.7312 20.6188 74.084 19.4937 74.184 19.2213ZM93.9877 21.4359C95.1343 21.4359 96.0751 21.809 96.7866 22.5373H96.7807C97.4922 23.2657 97.8392 24.1895 97.8215 25.279C97.8156 25.6225 97.7745 25.9718 97.7039 26.3094L97.6686 26.4692H89.3072L86.3495 39.313C86.0555 40.6335 85.3264 41.7823 84.1857 42.7179C83.0508 43.6594 81.7984 44.1332 80.4754 44.1332H80.2343L84.2739 26.4692H80.7282C79.5816 26.4692 78.6408 26.0962 77.9293 25.3678C77.2178 24.6336 76.865 23.7039 76.8827 22.5966C76.8885 22.2827 76.9297 21.9511 77.0061 21.5958L77.0414 21.4359H93.9877Z" fill="white"/>
<path d="M100.078 51.5646C100.078 49.4151 101.819 47.6564 103.959 47.6564C106.099 47.6564 107.846 49.4091 107.846 51.5646C107.846 53.72 106.105 55.4787 103.959 55.4787C101.813 55.4787 100.078 53.72 100.078 51.5646ZM106.899 51.5646C106.899 49.7348 105.588 48.4143 103.959 48.4143C102.33 48.4143 101.025 49.7408 101.025 51.5646C101.025 53.3884 102.336 54.7208 103.959 54.7208C105.582 54.7208 106.899 53.4003 106.899 51.5646ZM102.465 49.3381H104.1C105.153 49.3381 105.729 49.7052 105.729 50.6408C105.729 51.3988 105.294 51.7659 104.576 51.831L105.758 53.7674H104.917L103.783 51.8607H103.289V53.7674H102.471V49.3381H102.465ZM103.283 51.233H104.006C104.482 51.233 104.906 51.1619 104.906 50.5757C104.906 50.0487 104.435 49.9658 104.012 49.9658H103.283V51.233Z" fill="white"/>
<path d="M122.205 28.8497V44.0443H119.495V28.8497H115.49V26.5521H126.192V28.8497H122.211H122.205Z" fill="white"/>
<path d="M138.299 37.4772L129.708 38.6852C129.979 41.036 131.302 42.2144 133.666 42.2144C135.071 42.2144 136.265 41.9479 137.241 41.415L138.011 43.3987C136.841 44.0086 135.341 44.3165 133.501 44.3165C131.484 44.3165 129.92 43.7066 128.797 42.4809C127.691 41.2906 127.139 39.6385 127.139 37.5305C127.139 35.4224 127.656 33.8887 128.697 32.6511C129.749 31.3957 131.178 30.7681 132.966 30.7681C134.63 30.7681 135.941 31.2832 136.9 32.3136C137.84 33.3439 138.317 34.7355 138.317 36.4942C138.317 36.9265 138.311 37.2581 138.293 37.4831L138.299 37.4772ZM135.806 36.0738C135.788 33.8177 134.83 32.6926 132.925 32.6926C131.902 32.6926 131.09 33.0656 130.502 33.8058C129.879 34.5638 129.555 35.6119 129.544 36.9442L135.806 36.0738Z" fill="white"/>
<path d="M140.197 44.0444V25.0778H142.837V44.0444H140.197Z" fill="white"/>
<path d="M155.863 37.4772L147.273 38.6852C147.543 41.036 148.866 42.2144 151.23 42.2144C152.635 42.2144 153.829 41.9479 154.805 41.415L155.575 43.3987C154.405 44.0086 152.906 44.3165 151.065 44.3165C149.048 44.3165 147.484 43.7066 146.361 42.4809C145.256 41.2906 144.703 39.6385 144.703 37.5305C144.703 35.4224 145.221 33.8887 146.261 32.6511C147.314 31.3957 148.743 30.7681 150.53 30.7681C152.194 30.7681 153.506 31.2832 154.464 32.3136C155.405 33.3439 155.881 34.7355 155.881 36.4942C155.881 36.9265 155.875 37.2581 155.858 37.4831L155.863 37.4772ZM153.37 36.0738C153.353 33.8177 152.394 32.6926 150.489 32.6926C149.466 32.6926 148.655 33.0656 148.067 33.8058C147.443 34.5638 147.12 35.6119 147.108 36.9442L153.37 36.0738Z" fill="white"/>
<path d="M166.205 43.4165C165.323 44.0146 164.224 44.3107 162.895 44.3107C161.313 44.3107 160.008 43.7718 158.985 42.6941C157.803 41.4565 157.209 39.7333 157.209 37.5246C157.209 35.3159 157.803 33.6045 158.985 32.3788C160.008 31.3011 161.313 30.7622 162.895 30.7622C164.224 30.7622 165.323 31.0583 166.205 31.6564L165.341 33.5631C164.765 33.1427 164.059 32.9354 163.23 32.9354C162.283 32.9354 161.519 33.2966 160.925 34.025C160.255 34.8481 159.92 36.0087 159.92 37.5068C159.92 39.005 160.261 40.1656 160.949 40.9887C161.554 41.7289 162.319 42.1019 163.23 42.1019C164.059 42.1019 164.765 41.8947 165.341 41.4743L166.205 43.4284V43.4165Z" fill="white"/>
<path d="M177.168 42.3566C176.145 43.6593 174.739 44.3107 172.946 44.3107C171.152 44.3107 169.747 43.6593 168.724 42.3566C167.748 41.1308 167.26 39.5201 167.26 37.5246C167.26 35.529 167.748 33.9184 168.724 32.6926C169.747 31.4017 171.152 30.7622 172.946 30.7622C174.739 30.7622 176.145 31.4077 177.168 32.6926C178.144 33.9184 178.632 35.529 178.632 37.5246C178.632 39.5201 178.144 41.1308 177.168 42.3566ZM175.227 34.1138C174.698 33.2789 173.939 32.8584 172.946 32.8584C171.952 32.8584 171.194 33.2789 170.664 34.1138C170.153 34.9369 169.894 36.062 169.894 37.495C169.894 38.928 170.147 40.059 170.664 40.8762C171.194 41.7289 171.952 42.1552 172.946 42.1552C173.939 42.1552 174.698 41.7289 175.227 40.8762C175.739 40.0531 175.998 38.928 175.998 37.495C175.998 36.062 175.739 34.931 175.227 34.1138Z" fill="white"/>
<path d="M195.377 44.0443V35.2271C195.377 34.4869 195.153 33.9066 194.706 33.4862C194.26 33.0835 193.66 32.8822 192.907 32.8822C191.866 32.8822 191.073 33.1723 190.532 33.7526V44.0443H187.891V34.9843C187.891 34.3389 187.65 33.8237 187.174 33.4388C186.692 33.0717 186.057 32.8822 185.257 32.8822C184.375 32.8822 183.64 33.0125 183.052 33.2671V44.0443H180.436V31.6742C181.906 31.0643 183.458 30.7563 185.093 30.7563C186.951 30.7563 188.327 31.2242 189.22 32.1598C190.308 31.2242 191.737 30.7563 193.513 30.7563C194.889 30.7563 195.982 31.1353 196.8 31.8933C197.599 32.6512 197.999 33.6757 197.999 34.9606V44.0443H195.383H195.377Z" fill="white"/>
</svg>
