<svg width="193" height="50" viewBox="0 0 193 50" fill="none" xmlns="http://www.w3.org/2000/svg">
<path d="M66.2233 7.68994C61.8471 7.68994 58.0807 10.5844 56.5696 14.6573C56.4934 14.865 56.2244 15.723 56.2244 15.723L50.1309 42.3012H64.1294C68.9405 42.3012 73.0073 38.8062 74.1642 34.0965L80.2173 7.68091H66.2233V7.68994Z" fill="#16B14B"/>
<path d="M42.9093 0C38.2237 0 34.269 3.19697 33.0404 7.55893C32.9463 7.88404 32.8745 8.21819 32.8118 8.55685L23.3105 50H37.2956C42.0888 50 46.1198 46.654 47.2452 42.143L56.9123 0H42.9093Z" fill="#F27227"/>
<path d="M16.088 7.6897C11.5503 7.6897 7.67182 10.7964 6.27735 15.1041C6.24597 15.199 6.21458 15.2983 6.18768 15.3931L5.95452 16.3188L0 42.3054H14.3348C18.6168 42.3054 22.2936 39.4426 23.7239 35.4329L24.2934 32.9584L30.0865 7.6897H16.0924H16.088Z" fill="#1169B0"/>
<path d="M13.4749 16.3235V16.3461H13.2507C12.2508 16.3461 11.3092 16.7028 10.4483 17.4117C9.61879 18.0936 9.07177 18.9244 8.88345 19.6062H8.87448L5.66406 33.6539H5.8479C6.85676 33.6539 7.81181 33.2927 8.67719 32.5747C9.54705 31.8613 10.103 30.9853 10.3317 29.9783L11.0357 26.9304H17.4206C18.4161 26.9304 19.3801 26.5556 20.2544 25.8512C21.1243 25.1422 21.6803 24.2753 21.9045 23.2683L21.9448 23.0832L11.928 23.0741L12.5961 20.1797L21.2723 20.1662C22.2721 20.1662 23.2137 19.8094 24.0746 19.1095C24.9311 18.4051 25.4691 17.5201 25.7112 16.5222L25.7561 16.337L13.4839 16.3235H13.4749Z" fill="white"/>
<path d="M48.8916 17.1769C48.3401 16.6215 47.6227 16.337 46.7528 16.337L34.5075 16.3235L30.5527 33.6314H30.5572V33.6539H30.7366C31.7454 33.6539 32.7005 33.2927 33.5659 32.5792C34.4357 31.8658 34.9917 30.9898 35.2159 29.9828L35.9244 26.8988L44.4033 26.9078C45.3987 26.9078 46.2865 26.7904 47.1519 26.0905C48.0083 25.3906 48.6225 24.2798 48.8647 23.2593L49.609 20.0533C49.6628 19.8004 49.6942 19.534 49.6987 19.2631C49.7121 18.4367 49.4431 17.7323 48.8916 17.1769ZM45.0714 23.0696L36.8122 23.0606L37.4802 20.1571L45.7394 20.1662L45.0714 23.0651V23.0696Z" fill="white"/>
<path d="M73.8052 17.1861C73.2626 16.6307 72.5452 16.3462 71.6709 16.3462H58.7485L58.7216 16.4681C58.6633 16.739 58.6319 16.9919 58.6274 17.2312C58.614 18.0756 58.883 18.7846 59.4256 19.3445C59.9681 19.8999 60.6855 20.1844 61.5599 20.1844H64.2636L61.1832 33.6541H61.3671C62.3759 33.6541 63.331 33.2928 64.1963 32.5749C65.0662 31.8614 65.6222 30.9854 65.8464 29.9784L68.1018 20.1844H74.4778L74.5047 20.0624C74.5585 19.8051 74.5899 19.5386 74.5943 19.2767C74.6078 18.4459 74.3432 17.7415 73.8007 17.1861H73.8052Z" fill="white"/>
<path d="M76.3145 39.3208C76.3145 37.6817 77.6417 36.3406 79.2738 36.3406C80.9059 36.3406 82.2376 37.6772 82.2376 39.3208C82.2376 40.9644 80.9104 42.3055 79.2738 42.3055C77.6372 42.3055 76.3145 40.9644 76.3145 39.3208ZM81.5157 39.3208C81.5157 37.9255 80.5158 36.9186 79.2738 36.9186C78.0318 36.9186 77.0363 37.93 77.0363 39.3208C77.0363 40.7116 78.0362 41.7276 79.2738 41.7276C80.5113 41.7276 81.5157 40.7206 81.5157 39.3208ZM78.1349 37.623H79.3814C80.184 37.623 80.6234 37.9029 80.6234 38.6164C80.6234 39.1944 80.2916 39.4743 79.7446 39.524L80.6458 41.0006H80.0046L79.1393 39.5466H78.7626V41.0006H78.1394V37.623H78.1349ZM78.7581 39.0679H79.3097C79.6728 39.0679 79.9957 39.0137 79.9957 38.5667C79.9957 38.1648 79.637 38.1016 79.3141 38.1016H78.7581V39.0679Z" fill="#1169B0"/>
<path d="M93.1869 21.9993V33.5861H91.1199V21.9993H88.0664V20.2473H96.227V21.9993H93.1914H93.1869Z" fill="#1169B0"/>
<path d="M105.458 28.5787L98.9067 29.4999C99.113 31.2925 100.122 32.1911 101.924 32.1911C102.996 32.1911 103.906 31.9879 104.65 31.5815L105.238 33.0942C104.346 33.5593 103.202 33.7941 101.799 33.7941C100.261 33.7941 99.0681 33.329 98.2117 32.3943C97.3687 31.4867 96.9473 30.2268 96.9473 28.6193C96.9473 27.0118 97.3418 25.8423 98.1355 24.8986C98.9381 23.9413 100.028 23.4626 101.391 23.4626C102.66 23.4626 103.66 23.8555 104.39 24.6412C105.108 25.4269 105.471 26.488 105.471 27.8291C105.471 28.1588 105.467 28.4116 105.453 28.5832L105.458 28.5787ZM103.556 27.5085C103.543 25.7881 102.812 24.9302 101.359 24.9302C100.579 24.9302 99.9604 25.2147 99.512 25.7791C99.0367 26.3571 98.7901 27.1563 98.7811 28.1723L103.556 27.5085Z" fill="#1169B0"/>
<path d="M106.906 33.5864V19.1233H108.919V33.5864H106.906Z" fill="#1169B0"/>
<path d="M118.854 28.5787L112.303 29.4999C112.509 31.2925 113.518 32.1911 115.321 32.1911C116.392 32.1911 117.303 31.9879 118.047 31.5815L118.634 33.0942C117.742 33.5593 116.599 33.7941 115.195 33.7941C113.657 33.7941 112.465 33.329 111.608 32.3943C110.765 31.4867 110.344 30.2268 110.344 28.6193C110.344 27.0118 110.738 25.8423 111.532 24.8986C112.335 23.9413 113.424 23.4626 114.787 23.4626C116.056 23.4626 117.056 23.8555 117.787 24.6412C118.504 25.4269 118.868 26.488 118.868 27.8291C118.868 28.1588 118.863 28.4116 118.85 28.5832L118.854 28.5787ZM116.953 27.5085C116.939 25.7881 116.209 24.9302 114.756 24.9302C113.976 24.9302 113.357 25.2147 112.908 25.7791C112.433 26.3571 112.187 27.1563 112.178 28.1723L116.953 27.5085Z" fill="#1169B0"/>
<path d="M126.737 33.1074C126.065 33.5634 125.226 33.7892 124.213 33.7892C123.007 33.7892 122.011 33.3783 121.231 32.5565C120.33 31.6127 119.877 30.2987 119.877 28.6145C119.877 26.9302 120.33 25.6252 121.231 24.6905C122.011 23.8687 123.007 23.4578 124.213 23.4578C125.226 23.4578 126.065 23.6835 126.737 24.1396L126.078 25.5936C125.639 25.273 125.101 25.1149 124.468 25.1149C123.747 25.1149 123.164 25.3904 122.711 25.9458C122.2 26.5734 121.944 27.4585 121.944 28.6009C121.944 29.7433 122.204 30.6284 122.729 31.256C123.191 31.8204 123.773 32.1049 124.468 32.1049C125.101 32.1049 125.639 31.9469 126.078 31.6263L126.737 33.1164V33.1074Z" fill="#1169B0"/>
<path d="M135.096 32.2991C134.316 33.2925 133.244 33.7892 131.877 33.7892C130.509 33.7892 129.438 33.2925 128.657 32.2991C127.913 31.3644 127.541 30.1362 127.541 28.6145C127.541 27.0927 127.913 25.8645 128.657 24.9298C129.438 23.9454 130.509 23.4578 131.877 23.4578C133.244 23.4578 134.316 23.95 135.096 24.9298C135.841 25.8645 136.213 27.0927 136.213 28.6145C136.213 30.1362 135.841 31.3644 135.096 32.2991ZM133.617 26.0135C133.213 25.3768 132.635 25.0562 131.877 25.0562C131.119 25.0562 130.541 25.3768 130.137 26.0135C129.747 26.6412 129.55 27.4991 129.55 28.5919C129.55 29.6846 129.743 30.5471 130.137 31.1702C130.541 31.8204 131.119 32.1456 131.877 32.1456C132.635 32.1456 133.213 31.8204 133.617 31.1702C134.007 30.5426 134.204 29.6846 134.204 28.5919C134.204 27.4991 134.007 26.6367 133.617 26.0135Z" fill="#1169B0"/>
<path d="M148.985 33.5861V26.8626C148.985 26.2981 148.815 25.8556 148.474 25.535C148.133 25.228 147.676 25.0744 147.102 25.0744C146.308 25.0744 145.703 25.2957 145.291 25.7382V33.5861H143.277V26.6774C143.277 26.1852 143.093 25.7924 142.73 25.4989C142.363 25.2189 141.878 25.0744 141.269 25.0744C140.596 25.0744 140.035 25.1738 139.587 25.3679V33.5861H137.592V24.1533C138.713 23.6882 139.896 23.4534 141.143 23.4534C142.56 23.4534 143.609 23.8101 144.291 24.5235C145.12 23.8101 146.21 23.4534 147.564 23.4534C148.613 23.4534 149.447 23.7424 150.07 24.3203C150.68 24.8983 150.985 25.6795 150.985 26.6594V33.5861H148.99H148.985Z" fill="#1169B0"/>
</svg>
