<svg width="386" height="100" viewBox="0 0 386 100" fill="none" xmlns="http://www.w3.org/2000/svg">
<path fill-rule="evenodd" clip-rule="evenodd" d="M12.5547 30.2083C15.3436 21.5927 23.1006 15.3794 32.1758 15.3794H32.1848H60.1727L48.5865 65.9167L47.4476 70.8657C44.587 78.8852 37.2335 84.6109 28.6695 84.6109H0L11.909 32.6376L12.3753 30.7862C12.4291 30.5966 12.4919 30.3979 12.5547 30.2083ZM26.9497 32.6921V32.647H26.9676L51.512 32.6741L51.4223 33.0443C50.9381 35.0402 49.8619 36.8102 48.1491 38.2191C46.4273 39.6189 44.5442 40.3323 42.5444 40.3323L25.1921 40.3594L23.8559 46.1483L43.8895 46.1663L43.8088 46.5366C43.3604 48.5505 42.2484 50.2845 40.5087 51.7023C38.76 53.1112 36.832 53.8607 34.8412 53.8607H22.0713L20.6634 59.9566C20.2061 61.9705 19.0941 63.7226 17.3544 65.1495C15.6236 66.5854 13.7135 67.3079 11.6958 67.3079H11.3281L17.7489 39.2125H17.7669C18.1435 37.8488 19.2376 36.1871 20.8966 34.8234C22.6183 33.4056 24.5015 32.6921 26.5013 32.6921H26.9497Z" fill="white"/>
<path fill-rule="evenodd" clip-rule="evenodd" d="M66.0808 15.1179C68.5379 6.39393 76.4474 0 85.8185 0H113.824L94.4902 84.2861C92.2393 93.308 84.1775 100 74.5911 100H46.6211L65.6235 17.1137C65.749 16.4364 65.8925 15.7681 66.0808 15.1179ZM93.5054 32.6741C95.2452 32.6741 96.68 33.243 97.783 34.3538C98.886 35.4646 99.4241 36.8735 99.3972 38.5261C99.3882 39.068 99.3254 39.6008 99.2178 40.1066L97.7292 46.5185C97.2449 48.5595 96.0164 50.7812 94.3036 52.181C92.5728 53.5808 90.7972 53.8156 88.8064 53.8156L71.8487 53.7975L70.4318 59.9657C69.9834 61.9796 68.8714 63.7316 67.1317 65.1585C65.401 66.5854 63.4909 67.3079 61.4731 67.3079H61.1144V67.2627H61.1055L69.0149 32.647L93.5054 32.6741ZM73.6243 46.1212L90.1426 46.1392V46.1302L91.4788 40.3323L74.9604 40.3143L73.6243 46.1212Z" fill="white"/>
<path fill-rule="evenodd" clip-rule="evenodd" d="M113.139 29.3147C116.161 21.1687 123.694 15.3799 132.446 15.3799V15.3618H160.434L148.328 68.193C146.014 77.6123 137.881 84.6023 128.259 84.6023H100.262L112.449 31.446C112.449 31.446 112.987 29.7301 113.139 29.3147ZM143.342 32.6924C145.09 32.6924 146.525 33.2613 147.61 34.3721H147.601C148.686 35.483 149.215 36.8918 149.189 38.5535C149.18 39.0773 149.117 39.6101 149.009 40.1249L148.955 40.3687H136.203L131.693 59.9569C131.244 61.9708 130.132 63.7228 128.393 65.1497C126.662 66.5856 124.752 67.3081 122.734 67.3081H122.366L128.527 40.3687H123.12C121.371 40.3687 119.936 39.7998 118.851 38.6889C117.766 37.5691 117.228 36.1512 117.255 34.4625C117.264 33.9838 117.327 33.4781 117.443 32.9362L117.497 32.6924H143.342Z" fill="white"/>
<path d="M152.629 78.6416C152.629 75.3634 155.283 72.6812 158.548 72.6812C161.812 72.6812 164.475 75.3543 164.475 78.6416C164.475 81.9289 161.821 84.6111 158.548 84.6111C155.274 84.6111 152.629 81.9289 152.629 78.6416ZM163.031 78.6416C163.031 75.851 161.032 73.8371 158.548 73.8371C156.064 73.8371 154.073 75.8601 154.073 78.6416C154.073 81.4231 156.072 83.4551 158.548 83.4551C161.023 83.4551 163.031 81.4412 163.031 78.6416ZM156.27 75.2459H158.763C160.368 75.2459 161.247 75.8059 161.247 77.2328C161.247 78.3887 160.583 78.9486 159.489 79.048L161.292 82.0011H160.009L158.279 79.0931H157.525V82.0011H156.279V75.2459H156.27ZM157.516 78.1359H158.619C159.346 78.1359 159.991 78.0275 159.991 77.1334C159.991 76.3297 159.274 76.2032 158.628 76.2032H157.516V78.1359Z" fill="white"/>
<path d="M186.372 43.9986V67.1721H182.238V43.9986H176.131V40.4946H192.452V43.9986H186.381H186.372Z" fill="white"/>
<path d="M210.913 57.1574L197.811 58.9997C198.224 62.585 200.242 64.3822 203.847 64.3822C205.99 64.3822 207.81 63.9758 209.299 63.163L210.474 66.1884C208.689 67.1186 206.402 67.5882 203.596 67.5882C200.52 67.5882 198.134 66.658 196.421 64.7886C194.736 62.9733 193.893 60.4537 193.893 57.2387C193.893 54.0236 194.682 51.6846 196.269 49.7971C197.874 47.8826 200.053 46.9253 202.779 46.9253C205.317 46.9253 207.317 47.711 208.779 49.2824C210.214 50.8538 210.94 52.976 210.94 55.6582C210.94 56.3175 210.931 56.8232 210.904 57.1664L210.913 57.1574ZM207.111 55.017C207.084 51.5762 205.622 49.8604 202.717 49.8604C201.156 49.8604 199.919 50.4293 199.022 51.5582C198.071 52.7142 197.578 54.3126 197.56 56.3446L207.111 55.017Z" fill="white"/>
<path d="M213.811 67.1728V38.2466H217.837V67.1728H213.811Z" fill="white"/>
<path d="M237.706 57.1574L224.604 58.9997C225.017 62.585 227.035 64.3822 230.64 64.3822C232.783 64.3822 234.603 63.9758 236.092 63.163L237.267 66.1884C235.482 67.1186 233.195 67.5882 230.389 67.5882C227.313 67.5882 224.927 66.658 223.214 64.7886C221.529 62.9733 220.686 60.4537 220.686 57.2387C220.686 54.0236 221.475 51.6846 223.062 49.7971C224.667 47.8826 226.846 46.9253 229.572 46.9253C232.11 46.9253 234.11 47.711 235.572 49.2824C237.007 50.8538 237.733 52.976 237.733 55.6582C237.733 56.3175 237.724 56.8232 237.697 57.1664L237.706 57.1574ZM233.904 55.017C233.877 51.5762 232.415 49.8604 229.51 49.8604C227.949 49.8604 226.712 50.4293 225.815 51.5582C224.864 52.7142 224.371 54.3126 224.353 56.3446L233.904 55.017Z" fill="white"/>
<path d="M253.472 66.2147C252.127 67.1269 250.45 67.5784 248.424 67.5784C246.011 67.5784 244.021 66.7566 242.46 65.1129C240.658 63.2255 239.752 60.5975 239.752 57.2289C239.752 53.8603 240.658 51.2504 242.46 49.381C244.021 47.7373 246.011 46.9155 248.424 46.9155C250.45 46.9155 252.127 47.3671 253.472 48.2792L252.154 51.1872C251.275 50.546 250.199 50.2299 248.935 50.2299C247.491 50.2299 246.325 50.7808 245.419 51.8916C244.397 53.1469 243.886 54.917 243.886 57.2018C243.886 59.4866 244.406 61.2567 245.455 62.512C246.379 63.6409 247.545 64.2098 248.935 64.2098C250.199 64.2098 251.275 63.8938 252.154 63.2526L253.472 66.2328V66.2147Z" fill="white"/>
<path d="M270.19 64.5982C268.63 66.585 266.487 67.5784 263.752 67.5784C261.017 67.5784 258.873 66.585 257.313 64.5982C255.824 62.7288 255.08 60.2723 255.08 57.2289C255.08 54.1855 255.824 51.729 257.313 49.8596C258.873 47.8909 261.017 46.9155 263.752 46.9155C266.487 46.9155 268.63 47.8999 270.19 49.8596C271.679 51.729 272.423 54.1855 272.423 57.2289C272.423 60.2723 271.679 62.7288 270.19 64.5982ZM267.231 52.0271C266.424 50.7537 265.267 50.1125 263.752 50.1125C262.236 50.1125 261.079 50.7537 260.272 52.0271C259.492 53.2824 259.098 54.9983 259.098 57.1837C259.098 59.3692 259.483 61.0942 260.272 62.3404C261.079 63.6409 262.236 64.2911 263.752 64.2911C265.267 64.2911 266.424 63.6409 267.231 62.3404C268.011 61.0851 268.406 59.3692 268.406 57.1837C268.406 54.9983 268.011 53.2733 267.231 52.0271Z" fill="white"/>
<path d="M297.968 67.1722V53.7251C297.968 52.5963 297.628 51.7112 296.946 51.07C296.265 50.4559 295.35 50.1489 294.202 50.1489C292.615 50.1489 291.404 50.5914 290.579 51.4764V67.1722H286.553V53.3549C286.553 52.3705 286.185 51.5848 285.459 50.9978C284.723 50.4379 283.755 50.1489 282.535 50.1489C281.19 50.1489 280.069 50.3475 279.172 50.7359V67.1722H275.182V48.3065C277.424 47.3764 279.791 46.9067 282.284 46.9067C285.118 46.9067 287.216 47.6202 288.579 49.0471C290.238 47.6202 292.417 46.9067 295.126 46.9067C297.224 46.9067 298.892 47.4847 300.139 48.6407C301.358 49.7967 301.968 51.359 301.968 53.3187V67.1722H297.977H297.968Z" fill="white"/>
</svg>
