<svg width="52" height="52" viewBox="0 0 52 52" fill="none" xmlns="http://www.w3.org/2000/svg">
<g clip-path="url(#clip0_770_5074)">
<rect width="52" height="52" rx="10" fill="#0A66C2"/>
<path d="M39.8125 0H12.1875C5.45653 0 0 5.45653 0 12.1875V39.8125C0 46.5435 5.45653 52 12.1875 52H39.8125C46.5435 52 52 46.5435 52 39.8125V12.1875C52 5.45653 46.5435 0 39.8125 0Z" fill="white"/>
<path d="M39.8125 0H12.1875C5.45653 0 0 5.45653 0 12.1875V39.8125C0 46.5435 5.45653 52 12.1875 52H39.8125C46.5435 52 52 46.5435 52 39.8125V12.1875C52 5.45653 46.5435 0 39.8125 0Z" fill="#0A66C2"/>
<path d="M37.5202 44.2173H43.4657C43.6812 44.2173 43.8878 44.1317 44.0402 43.9794C44.1925 43.827 44.2781 43.6204 44.2782 43.405L44.2812 30.8433C44.2812 24.2777 42.8665 19.2311 35.1938 19.2311C32.2772 19.1226 29.5267 20.6261 28.0424 23.1368C28.0352 23.1489 28.0241 23.1584 28.011 23.1638C27.9978 23.1691 27.9833 23.17 27.9696 23.1663C27.9559 23.1626 27.9438 23.1545 27.9351 23.1432C27.9264 23.132 27.9217 23.1182 27.9216 23.104V20.6497C27.9216 20.4342 27.836 20.2275 27.6836 20.0752C27.5312 19.9228 27.3246 19.8372 27.1091 19.8372H21.4669C21.2514 19.8372 21.0447 19.9228 20.8923 20.0752C20.74 20.2275 20.6544 20.4342 20.6544 20.6497V43.4037C20.6544 43.6192 20.74 43.8259 20.8923 43.9783C21.0447 44.1306 21.2514 44.2162 21.4669 44.2162H27.4119C27.6274 44.2162 27.8341 44.1306 27.9864 43.9783C28.1388 43.8259 28.2244 43.6192 28.2244 43.4037V32.1561C28.2244 28.9758 28.8277 25.8958 32.7706 25.8958C36.6574 25.8958 36.7077 29.535 36.7077 32.3621V43.4048C36.7077 43.6203 36.7933 43.8269 36.9457 43.9793C37.0981 44.1317 37.3047 44.2173 37.5202 44.2173ZM7.71875 12.1119C7.71875 14.5218 9.70267 16.5047 12.1128 16.5047C14.5222 16.5045 16.5049 14.5204 16.5049 12.1109C16.5045 9.70145 14.5216 7.71875 12.1119 7.71875C9.70166 7.71875 7.71875 9.70206 7.71875 12.1119ZM9.1323 44.2173H15.0853C15.3008 44.2173 15.5074 44.1317 15.6598 43.9793C15.8122 43.8269 15.8978 43.6203 15.8978 43.4048V20.6497C15.8978 20.4342 15.8122 20.2275 15.6598 20.0752C15.5074 19.9228 15.3008 19.8372 15.0853 19.8372H9.1323C8.91681 19.8372 8.71015 19.9228 8.55777 20.0752C8.4054 20.2275 8.3198 20.4342 8.3198 20.6497V43.4048C8.3198 43.6203 8.4054 43.8269 8.55777 43.9793C8.71015 44.1317 8.91681 44.2173 9.1323 44.2173Z" fill="white"/>
</g>
<defs>
<clipPath id="clip0_770_5074">
<rect width="52" height="52" rx="10" fill="white"/>
</clipPath>
</defs>
</svg>
