<svg width="52" height="52" viewBox="0 0 52 52" fill="none" xmlns="http://www.w3.org/2000/svg">
<rect width="52" height="52" rx="10" fill="#46AFF7"/>
<path d="M34.3118 11.3542H17.6868C15.6922 11.3542 13.7792 12.1466 12.3688 13.557C10.9584 14.9675 10.166 16.8804 10.166 18.8751V33.1251C10.166 34.1127 10.3605 35.0907 10.7385 36.0032C11.1165 36.9156 11.6704 37.7447 12.3688 38.4431C13.7792 39.8535 15.6922 40.6459 17.6868 40.6459H34.3118C36.3052 40.6417 38.2157 39.848 39.6253 38.4385C41.0348 37.029 41.8285 35.1184 41.8327 33.1251V18.8751C41.8285 16.8817 41.0348 14.9712 39.6253 13.5617C38.2157 12.1521 36.3052 11.3584 34.3118 11.3542ZM28.5327 24.5276C27.7537 24.9718 26.8724 25.2055 25.9756 25.2055C25.0788 25.2055 24.1975 24.9718 23.4185 24.5276L12.5727 18.3051C12.7129 17.0468 13.3121 15.8844 14.2556 15.0402C15.1992 14.196 16.4208 13.7292 17.6868 13.7292H34.3118C35.5769 13.7327 36.7967 14.2007 37.7395 15.0442C38.6823 15.8878 39.2824 17.0482 39.426 18.3051L28.5327 24.5276Z" fill="white"/>
</svg>
