<svg width="52" height="52" viewBox="0 0 52 52" fill="none" xmlns="http://www.w3.org/2000/svg">
<rect width="52" height="52" rx="10" fill="#46AFF7"/>
<path d="M14.125 11.75C14.125 10.4902 14.6254 9.28204 15.5162 8.39124C16.407 7.50045 17.6152 7 18.875 7H33.125C34.3848 7 35.593 7.50045 36.4838 8.39124C37.3746 9.28204 37.875 10.4902 37.875 11.75V40.25C37.875 41.5098 37.3746 42.718 36.4838 43.6088C35.593 44.4996 34.3848 45 33.125 45H18.875C17.6152 45 16.407 44.4996 15.5162 43.6088C14.6254 42.718 14.125 41.5098 14.125 40.25V11.75ZM28.375 37.875C28.375 37.2451 28.1248 36.641 27.6794 36.1956C27.234 35.7502 26.6299 35.5 26 35.5C25.3701 35.5 24.766 35.7502 24.3206 36.1956C23.8752 36.641 23.625 37.2451 23.625 37.875C23.625 38.5049 23.8752 39.109 24.3206 39.5544C24.766 39.9998 25.3701 40.25 26 40.25C26.6299 40.25 27.234 39.9998 27.6794 39.5544C28.1248 39.109 28.375 38.5049 28.375 37.875Z" fill="white"/>
</svg>
