<svg width="52" height="52" viewBox="0 0 52 52" fill="none" xmlns="http://www.w3.org/2000/svg">
<rect width="52" height="52" rx="10" fill="#1877F2"/>
<path d="M33.9386 20.4028C36.4922 22.2435 39.6206 23.3266 42.9994 23.3266V16.7707C42.3599 16.771 41.7221 16.7036 41.0965 16.5699V21.7303C37.7181 21.7303 34.5901 20.6474 32.0359 18.8068V32.1856C32.0359 38.8784 26.6552 44.3035 20.0183 44.3035C17.5419 44.3035 15.2401 43.5486 13.3281 42.2539C15.5104 44.5039 18.5538 45.8997 21.9206 45.8997C28.558 45.8997 33.9389 40.4746 33.9389 33.7815V20.4028H33.9386ZM36.2861 13.7888C34.981 12.3511 34.124 10.4932 33.9386 8.43912V7.59595H32.1354C32.5893 10.2066 34.1377 12.4369 36.2861 13.7888ZM17.5259 37.1182C16.7967 36.1543 16.4026 34.9749 16.4044 33.7623C16.4044 30.7013 18.8655 28.2194 21.9019 28.2194C22.4677 28.2191 23.0301 28.3067 23.5695 28.4791V21.7766C22.9392 21.6896 22.3032 21.6525 21.6674 21.6662V26.883C21.1278 26.7105 20.5651 26.623 19.999 26.6234C16.9628 26.6234 14.5019 29.1051 14.5019 32.1664C14.5019 34.3311 15.7319 36.2052 17.5259 37.1182Z" fill="#FF004F"/>
<path d="M32.0352 18.8067C34.5895 20.6473 37.7172 21.7302 41.0958 21.7302V16.5697C39.2099 16.1646 37.5405 15.171 36.2852 13.7888C34.1367 12.4368 32.5886 10.2064 32.1347 7.59595H27.3984V33.7812C27.3876 36.8339 24.9307 39.3056 21.9009 39.3056C20.1156 39.3056 18.5294 38.4475 17.525 37.118C15.7312 36.2052 14.501 34.331 14.501 32.1666C14.501 29.1055 16.962 26.6235 19.9982 26.6235C20.5799 26.6235 21.1406 26.7148 21.6666 26.8831V21.6663C15.1462 21.8022 9.90234 27.1743 9.90234 33.7813C9.90234 37.0795 11.2081 40.0695 13.3276 42.2542C15.2396 43.5486 17.5412 44.3038 20.0178 44.3038C26.6548 44.3038 32.0353 38.8783 32.0353 32.1856L32.0352 18.8067Z" fill="white"/>
<path d="M41.0962 16.5697V15.1746C39.3956 15.1771 37.7285 14.6969 36.2856 13.7888C37.5628 15.1988 39.2447 16.1711 41.0962 16.5699M32.135 7.59586C32.0917 7.34642 32.0585 7.09532 32.0354 6.84317V6H25.4956V32.1855C25.4852 35.2379 23.0284 37.7097 19.9984 37.7097C19.1395 37.7109 18.2922 37.5084 17.5252 37.1183C18.5297 38.4476 20.1159 39.3055 21.9012 39.3055C24.9308 39.3055 27.3879 36.8341 27.3986 33.7814V7.596L32.135 7.59586ZM21.6672 21.6662V20.1808C21.1207 20.1056 20.5698 20.0679 20.0183 20.068C13.3806 20.068 8 25.4934 8 32.1855C8 36.3812 10.1146 40.0789 13.3281 42.2539C11.2087 40.0694 9.90285 37.0793 9.90285 33.7812C9.90285 27.1743 15.1466 21.8021 21.6672 21.6662Z" fill="#00F2EA"/>
</svg>
