<svg width="52" height="52" viewBox="0 0 52 52" fill="none" xmlns="http://www.w3.org/2000/svg">
<rect width="52" height="52" rx="10" fill="#46AFF7"/>
<path d="M26.0007 40.7647C25.6312 40.7647 25.2618 40.6987 24.8923 40.5667C24.5229 40.4348 24.193 40.2369 23.9027 39.973C22.1875 38.3897 20.6701 36.8459 19.3507 35.3417C18.0312 33.8376 16.9297 32.3799 16.0462 30.9686C15.1627 29.5573 14.4898 28.1983 14.0275 26.8915C13.5652 25.5847 13.334 24.3376 13.334 23.1501C13.334 19.1917 14.6075 16.0383 17.1546 13.6897C19.7016 11.3411 22.6503 10.1667 26.0007 10.1667C29.351 10.1667 32.3002 11.3411 34.8483 13.6897C37.3964 16.0383 38.6694 19.1917 38.6673 23.1501C38.6673 24.3376 38.4367 25.5847 37.9754 26.8915C37.5141 28.1983 36.8412 29.5573 35.9566 30.9686C35.0721 32.3799 33.9701 33.8376 32.6507 35.3417C31.3312 36.8459 29.8138 38.3897 28.0986 39.973C27.8083 40.2369 27.4784 40.4348 27.109 40.5667C26.7395 40.6987 26.3701 40.7647 26.0007 40.7647ZM26.0007 26.0001C26.8715 26.0001 27.6172 25.6903 28.2379 25.0707C28.8586 24.4511 29.1684 23.7053 29.1673 22.8334C29.1663 21.9615 28.8565 21.2163 28.2379 20.5977C27.6193 19.9792 26.8736 19.6689 26.0007 19.6667C25.1277 19.6646 24.3825 19.975 23.765 20.5977C23.1475 21.2205 22.8372 21.9657 22.834 22.8334C22.8308 23.7011 23.1412 24.4468 23.765 25.0707C24.3888 25.6945 25.134 26.0043 26.0007 26.0001Z" fill="white"/>
</svg>
