<svg width="16" height="16" viewBox="0 0 16 16" fill="none" xmlns="http://www.w3.org/2000/svg">
    <path d="M3 1C2.60218 1 2.22064 1.15804 1.93934 1.43934C1.65804 1.72064 1.5 2.10218 1.5 2.5V13.5C1.5 13.8978 1.65804 14.2794 1.93934 14.5607C2.22064 14.842 2.60218 15 3 15H13C13.3978 15 13.7794 14.842 14.0607 14.5607C14.342 14.2794 14.5 13.8978 14.5 13.5V2.5C14.5 2.10218 14.342 1.72064 14.0607 1.43934C13.7794 1.15804 13.3978 1 13 1H3ZM3 2.5H13V4.5H3V2.5ZM3 5.5H13V13.5H3V5.5ZM5 6.5V7.5H7V6.5H5ZM5 8V9H7V8H5ZM5 9.5V10.5H7V9.5H5ZM9 6.5V7.5H11V6.5H9ZM9 8V9H11V8H9ZM9 9.5V10.5H11V9.5H9Z" fill="#66789C"/>
</svg>