<svg width="16" height="16" viewBox="0 0 16 16" fill="none" xmlns="http://www.w3.org/2000/svg">
    <path d="M4 1C3.60218 1 3.22064 1.15804 2.93934 1.43934C2.65804 1.72064 2.5 2.10218 2.5 2.5V13.5C2.5 13.8978 2.65804 14.2794 2.93934 14.5607C3.22064 14.842 3.60218 15 4 15H12C12.3978 15 12.7794 14.842 13.0607 14.5607C13.342 14.2794 13.5 13.8978 13.5 13.5V2.5C13.5 2.10218 13.342 1.72064 13.0607 1.43934C12.7794 1.15804 12.3978 1 12 1H4ZM4 2.5H12V11.5H4V2.5ZM4 13H12V13.5H4V13ZM7.5 12.5H8.5V13.5H7.5V12.5Z" fill="#66789C"/>
</svg>