<svg xmlns="http://www.w3.org/2000/svg" width="25" height = "25" viewBox="0 0 20 20">
  <circle cx="10" cy="10" r="10" style="fill: #3c65f5; stroke-width: 0px;"/>
  <path d="M6.8,7.53c-.23,0-.42-.07-.58-.21-.15-.15-.22-.33-.22-.55s.07-.4.22-.54c.16-.15.35-.22.58-.22s.42.07.57.22c.16.14.23.32.23.54s-.08.4-.23.55c-.15.14-.34.21-.57.21ZM7.45,8.15v5.17h-1.31v-5.17h1.31Z" style="fill: #fff; stroke-width: 0px;"/>
  <path d="M11.6,8.07c.62,0,1.11.2,1.49.59.38.39.57.93.57,1.62v3.03h-1.31v-2.86c0-.41-.1-.72-.31-.94-.21-.22-.49-.34-.84-.34s-.65.11-.86.34c-.21.22-.31.53-.31.94v2.86h-1.31v-5.17h1.31v.64c.17-.22.4-.4.66-.52.27-.13.57-.2.9-.2Z" style="fill: #fff; stroke-width: 0px;"/>
</svg>