<svg width="30" height="30" viewBox="0 0 30 30" fill="none" xmlns="http://www.w3.org/2000/svg">
<g clip-path="url(#clip0_779_316)">
<path d="M15 30C23.2843 30 30 23.2843 30 15C30 6.71573 23.2843 0 15 0C6.71573 0 0 6.71573 0 15C0 23.2843 6.71573 30 15 30Z" fill="url(#paint0_linear_779_316)"/>
<g clip-path="url(#clip1_779_316)">
<path d="M18.3125 7H12.6875C10.0991 7 8 9.09906 8 11.6875V17.3125C8 19.9009 10.0991 22 12.6875 22H18.3125C20.9009 22 23 19.9009 23 17.3125V11.6875C23 9.09906 20.9009 7 18.3125 7ZM21.5938 17.3125C21.5938 19.1219 20.1219 20.5938 18.3125 20.5938H12.6875C10.8781 20.5938 9.40625 19.1219 9.40625 17.3125V11.6875C9.40625 9.87813 10.8781 8.40625 12.6875 8.40625H18.3125C20.1219 8.40625 21.5938 9.87813 21.5938 11.6875V17.3125Z" fill="white"/>
<path d="M15.5 10.75C13.4291 10.75 11.75 12.4291 11.75 14.5C11.75 16.5709 13.4291 18.25 15.5 18.25C17.5709 18.25 19.25 16.5709 19.25 14.5C19.25 12.4291 17.5709 10.75 15.5 10.75ZM15.5 16.8438C14.2081 16.8438 13.1562 15.7919 13.1562 14.5C13.1562 13.2072 14.2081 12.1562 15.5 12.1562C16.7919 12.1562 17.8438 13.2072 17.8438 14.5C17.8438 15.7919 16.7919 16.8438 15.5 16.8438Z" fill="white"/>
<path d="M19.5309 10.9684C19.8069 10.9684 20.0306 10.7447 20.0306 10.4687C20.0306 10.1927 19.8069 9.96899 19.5309 9.96899C19.255 9.96899 19.0312 10.1927 19.0312 10.4687C19.0312 10.7447 19.255 10.9684 19.5309 10.9684Z" fill="white"/>
</g>
</g>
<defs>
<linearGradient id="paint0_linear_779_316" x1="4.39369" y1="25.6063" x2="25.6063" y2="4.39369" gradientUnits="userSpaceOnUse">
<stop stop-color="#FFC107"/>
<stop offset="0.507" stop-color="#F44336"/>
<stop offset="0.99" stop-color="#9C27B0"/>
</linearGradient>
<clipPath id="clip0_779_316">
<rect width="30" height="30" fill="white"/>
</clipPath>
<clipPath id="clip1_779_316">
<rect width="15" height="15" fill="white" transform="translate(8 7)"/>
</clipPath>
</defs>
</svg>
