<svg width="41" height="40" viewBox="0 0 41 40" fill="none" xmlns="http://www.w3.org/2000/svg">
    <!-- Vòng tròn nền -->
    <circle cx="20.3335" cy="20" r="20" fill="#1DA1F2" fill-opacity="0.1"/>
    
    <!-- Biểu tượng LinkedIn -->
    <path fill="#0077B5" d="M13.5 14.5H17V26H13.5V14.5ZM15.25 13C14.56 13 14 12.44 14 11.75C14 11.06 14.56 10.5 15.25 10.5C15.94 10.5 16.5 11.06 16.5 11.75C16.5 12.44 15.94 13 15.25 13ZM19 14.5H22.25V16H22.29C22.75 15.16 23.75 14.5 25 14.5C27.7 14.5 28.5 16.12 28.5 18.58V26H25V19.5C25 18.24 24.75 17.5 23.75 17.5C22.75 17.5 22.25 18.26 22.25 19.5V26H19V14.5Z"/>
    
    <!-- Dấu chấm của chữ "i" -->
    <circle cx="15.25" cy="11.25" r="2" fill="#0077B5"/>
</svg>