<svg width="30" height="30" viewBox="0 0 30 30" fill="none" xmlns="http://www.w3.org/2000/svg">
<g clip-path="url(#clip0_779_312)">
<path d="M15 30C23.2843 30 30 23.2843 30 15C30 6.71573 23.2843 0 15 0C6.71573 0 0 6.71573 0 15C0 23.2843 6.71573 30 15 30Z" fill="#FF0000"/>
<path d="M24 13.0394C24 10.8044 22.2478 9 20.0774 9H9.92257C7.75221 9 6 10.8044 6 13.0394V17.9606C6 20.1956 7.75221 22 9.92257 22H20.0774C22.2478 22 24 20.1956 24 17.9606V13.0394ZM17.5885 15.7461L13.5465 18.0426C13.3673 18.1451 13.208 18.0016 13.208 17.7965V13.1009C13.208 12.8959 13.3673 12.7524 13.5465 12.8549L17.6283 15.2539C17.8075 15.377 17.7677 15.6435 17.5885 15.7461Z" fill="white"/>
</g>
<defs>
<clipPath id="clip0_779_312">
<rect width="30" height="30" fill="white"/>
</clipPath>
</defs>
</svg>
