<svg width="30" height="30" viewBox="0 0 30 30" fill="none" xmlns="http://www.w3.org/2000/svg">
<g clip-path="url(#clip0_779_323)">
<path d="M15 30C23.2843 30 30 23.2843 30 15C30 6.71573 23.2843 0 15 0C6.71573 0 0 6.71573 0 15C0 23.2843 6.71573 30 15 30Z" fill="#1BABF2"/>
<path d="M15.4083 13.56V13.185H16.5308V18.4534H15.8892C15.7622 18.4536 15.6402 18.4035 15.5501 18.314C15.46 18.2245 15.409 18.1029 15.4083 17.9759C14.9399 18.319 14.374 18.5044 13.7933 18.5034C13.0678 18.5034 12.372 18.2153 11.8588 17.7024C11.3456 17.1895 11.0571 16.4939 11.0567 15.7684C11.0571 15.0428 11.3456 14.3472 11.8588 13.8343C12.372 13.3215 13.0678 13.0334 13.7933 13.0334C14.3737 13.0325 14.9401 13.2171 15.4083 13.56ZM10.7658 11.4917V11.6625C10.7658 11.9809 10.7233 12.2409 10.5158 12.5459L10.4908 12.5742C10.4218 12.6518 10.3545 12.731 10.2892 12.8117L6.68667 17.3334H10.7658V17.9734C10.7658 18.0365 10.7534 18.099 10.7292 18.1572C10.705 18.2155 10.6696 18.2685 10.6249 18.3131C10.5803 18.3577 10.5273 18.393 10.4689 18.4171C10.4106 18.4411 10.3481 18.4535 10.285 18.4534H5V18.1517C5 17.7825 5.09167 17.6175 5.20833 17.4459L9.04833 12.6917H5.16V11.4917H10.7658ZM17.8917 18.4534C17.7856 18.4534 17.6838 18.4112 17.6088 18.3362C17.5338 18.2612 17.4917 18.1595 17.4917 18.0534V11.4917H18.6925V18.4534H17.8917ZM22.2442 13C22.606 12.9999 22.9642 13.0711 23.2985 13.2094C23.6328 13.3478 23.9366 13.5506 24.1925 13.8064C24.4484 14.0621 24.6514 14.3658 24.79 14.7C24.9285 15.0342 24.9999 15.3924 25 15.7542C25.0001 16.116 24.929 16.4743 24.7906 16.8086C24.6523 17.1429 24.4494 17.4466 24.1937 17.7025C23.9379 17.9584 23.6343 18.1614 23.3001 18.3C22.9659 18.4386 22.6076 18.5099 22.2458 18.51C21.5152 18.5103 20.8143 18.2202 20.2975 17.7037C19.7807 17.1872 19.4902 16.4865 19.49 15.7559C19.4898 15.0252 19.7798 14.3244 20.2963 13.8075C20.8128 13.2907 21.5135 13.0003 22.2442 13ZM13.7942 17.3775C14.0086 17.3824 14.2219 17.3444 14.4214 17.2657C14.621 17.187 14.8028 17.0692 14.9562 16.9193C15.1096 16.7693 15.2315 16.5902 15.3147 16.3925C15.3979 16.1948 15.4408 15.9825 15.4408 15.7679C15.4408 15.5534 15.3979 15.3411 15.3147 15.1434C15.2315 14.9457 15.1096 14.7666 14.9562 14.6166C14.8028 14.4667 14.621 14.3489 14.4214 14.2702C14.2219 14.1915 14.0086 14.1535 13.7942 14.1584C13.3736 14.1679 12.9735 14.3417 12.6795 14.6425C12.3854 14.9433 12.2208 15.3473 12.2208 15.7679C12.2208 16.1886 12.3854 16.5926 12.6795 16.8934C12.9735 17.1942 13.3736 17.368 13.7942 17.3775ZM22.2442 17.375C22.674 17.375 23.0863 17.2043 23.3903 16.9003C23.6942 16.5963 23.865 16.1841 23.865 15.7542C23.865 15.3243 23.6942 14.9121 23.3903 14.6081C23.0863 14.3041 22.674 14.1334 22.2442 14.1334C21.8143 14.1334 21.402 14.3041 21.0981 14.6081C20.7941 14.9121 20.6233 15.3243 20.6233 15.7542C20.6233 16.1841 20.7941 16.5963 21.0981 16.9003C21.402 17.2043 21.8143 17.375 22.2442 17.375Z" fill="white"/>
</g>
<defs>
<clipPath id="clip0_779_323">
<rect width="30" height="30" fill="white"/>
</clipPath>
</defs>
</svg>
